<svg xmlns="http://www.w3.org/2000/svg" width="72" height="41.57" viewBox="0 0 72 41.57">
  <!-- Seamless flat-top hexagon grid tile (side 24). Echoes the logo's
       hexagon at whisper volume: warm grey strokes on the warm off-white
       page background. Tiled via CSS background-repeat; decorative only. -->
  <g fill="none" stroke="#d8cfc9" stroke-opacity="0.45" stroke-width="1">
    <path d="M24 0 L12 20.78 L-12 20.78 L-24 0 L-12 -20.78 L12 -20.78 Z"/>
    <path d="M60 20.78 L48 41.57 L24 41.57 L12 20.78 L24 0 L48 0 Z"/>
    <path d="M24 41.57 L12 62.35 L-12 62.35 L-24 41.57 L-12 20.78 L12 20.78 Z"/>
    <path d="M96 0 L84 20.78 L60 20.78 L48 0 L60 -20.78 L84 -20.78 Z"/>
    <path d="M96 41.57 L84 62.35 L60 62.35 L48 41.57 L60 20.78 L84 20.78 Z"/>
  </g>
</svg>
